<svg width="150" height="193" viewBox="0 0 150 193" fill="none" xmlns="http://www.w3.org/2000/svg">
<path d="M130.821 154.58V4.58008L19.1794 4.58008L19.1794 154.58H130.821Z" fill="#2F2E41"/>
<path d="M150 0H0V59.542H150V0Z" fill="#3F3D56"/>
<path d="M150 66.4121H0V125.954H150V66.4121Z" fill="#3F3D56"/>
<path d="M150 132.824H0V192.366H150V132.824Z" fill="#3F3D56"/>
<path d="M150 25.2461H0V34.4064H150V25.2461Z" fill="#FBBF24"/>
<path d="M150 91.6583H0V100.819H150V91.6583Z" fill="#FBBF24"/>
<path d="M150 158.071H0V167.231H150V158.071Z" fill="#FBBF24"/>
<path d="M120.802 12.0229C122.699 12.0229 124.237 10.485 124.237 8.58782C124.237 6.69066 122.699 5.15271 120.802 5.15271C118.904 5.15271 117.366 6.69066 117.366 8.58782C117.366 10.485 118.904 12.0229 120.802 12.0229Z" fill="#FBBF24"/>
<path d="M132.824 12.0229C134.722 12.0229 136.26 10.485 136.26 8.58782C136.26 6.69066 134.722 5.15271 132.824 5.15271C130.927 5.15271 129.389 6.69066 129.389 8.58782C129.389 10.485 130.927 12.0229 132.824 12.0229Z" fill="#FBBF24"/>
<path d="M144.847 12.0229C146.744 12.0229 148.282 10.485 148.282 8.58782C148.282 6.69066 146.744 5.15271 144.847 5.15271C142.95 5.15271 141.412 6.69066 141.412 8.58782C141.412 10.485 142.95 12.0229 144.847 12.0229Z" fill="#FBBF24"/>
<path d="M120.802 77.2902C122.699 77.2902 124.237 75.7522 124.237 73.855C124.237 71.9579 122.699 70.4199 120.802 70.4199C118.904 70.4199 117.366 71.9579 117.366 73.855C117.366 75.7522 118.904 77.2902 120.802 77.2902Z" fill="#FBBF24"/>
<path d="M132.824 77.2902C134.722 77.2902 136.26 75.7522 136.26 73.855C136.26 71.9579 134.722 70.4199 132.824 70.4199C130.927 70.4199 129.389 71.9579 129.389 73.855C129.389 75.7522 130.927 77.2902 132.824 77.2902Z" fill="#FBBF24"/>
</svg>
