<svg width="135" height="25" viewBox="0 0 135 25" fill="none" xmlns="http://www.w3.org/2000/svg">
<path d="M49.5833 19C49.391 17.6282 49.2051 16.5192 49.0256 15.6731H43.7949C43.6154 16.5192 43.4295 17.6282 43.2372 19H40.3525C40.8397 14.3462 42.3654 9.85897 44.9295 5.53846H47.9102C50.4615 9.83333 51.9808 14.3205 52.4679 19H49.5833ZM48.5641 13.5577C48.0256 11.4423 47.3077 9.5 46.4102 7.73077C45.5128 9.5 44.7949 11.4423 44.2564 13.5577H48.5641ZM59.2209 8.28846C59.8363 8.28846 60.285 8.42308 60.5671 8.69231C60.8491 8.94872 60.9902 9.36538 60.9902 9.94231C60.9902 10.1603 60.9581 10.3782 60.894 10.5962C60.8427 10.8013 60.7658 10.9615 60.6632 11.0769C60.5094 10.9872 60.3363 10.9231 60.144 10.8846C59.9517 10.8462 59.6761 10.8269 59.3171 10.8269C58.4838 10.8269 57.862 11.0833 57.4517 11.5962C57.0543 12.109 56.8556 12.891 56.8556 13.9423V19H54.0094V8.42308H56.8556V9.82692C57.112 9.32692 57.4453 8.94872 57.8556 8.69231C58.2658 8.42308 58.7209 8.28846 59.2209 8.28846ZM69.9023 8.34615C70.2613 8.34615 70.6395 8.40385 71.0369 8.51923C71.4472 8.63461 71.8318 8.79487 72.1907 9C71.9343 9.33333 71.7613 9.73718 71.6715 10.2115C71.5946 10.6731 71.5561 11.4231 71.5561 12.4615V23.3846H68.71V18.2115C68.3766 18.5192 67.9792 18.7628 67.5177 18.9423C67.0689 19.109 66.5946 19.1923 66.0946 19.1923C64.7356 19.1923 63.6779 18.7179 62.9215 17.7692C62.1779 16.8077 61.8061 15.4679 61.8061 13.75C61.8061 12.6474 61.9792 11.6795 62.3254 10.8462C62.6843 10.0128 63.1843 9.37179 63.8254 8.92308C64.4664 8.46154 65.2164 8.23077 66.0754 8.23077C66.7677 8.23077 67.351 8.32692 67.8254 8.51923C68.2997 8.71154 68.6523 8.99359 68.883 9.36538C68.9728 9.00641 69.101 8.75 69.2677 8.59615C69.4343 8.42949 69.6459 8.34615 69.9023 8.34615ZM66.5754 17.3462C67.4215 17.3462 68.133 16.9744 68.71 16.2308V11.2885V11.0769C68.2613 10.3846 67.6138 10.0385 66.7677 10.0385C65.383 10.0385 64.6907 11.2756 64.6907 13.75C64.6907 14.9808 64.8446 15.891 65.1523 16.4808C65.46 17.0577 65.9343 17.3462 66.5754 17.3462ZM78.3907 19.1923C76.8394 19.1923 75.6343 18.7115 74.7753 17.75C73.9292 16.7885 73.5061 15.4359 73.5061 13.6923C73.5061 11.9487 73.9292 10.6026 74.7753 9.65385C75.6343 8.70513 76.8394 8.23077 78.3907 8.23077C79.942 8.23077 81.1407 8.70513 81.9869 9.65385C82.8458 10.6026 83.2753 11.9487 83.2753 13.6923C83.2753 15.4359 82.8458 16.7885 81.9869 17.75C81.1407 18.7115 79.942 19.1923 78.3907 19.1923ZM78.3907 17.3462C79.0958 17.3462 79.6022 17.0577 79.9099 16.4808C80.2305 15.9038 80.3907 14.9744 80.3907 13.6923C80.3907 12.4231 80.2305 11.5064 79.9099 10.9423C79.6022 10.3654 79.0958 10.0769 78.3907 10.0769C77.6856 10.0769 77.1728 10.359 76.8522 10.9231C76.5446 11.4872 76.3907 12.4103 76.3907 13.6923C76.3907 14.9744 76.5446 15.9038 76.8522 16.4808C77.1728 17.0577 77.6856 17.3462 78.3907 17.3462ZM94.2438 16.3462C94.2438 16.9872 94.2694 17.4679 94.3207 17.7885C94.372 18.109 94.4681 18.4038 94.6092 18.6731C93.8528 18.9551 93.0707 19.0962 92.263 19.0962C91.9425 19.0962 91.7181 18.9423 91.5899 18.6346C91.4617 18.3269 91.3976 17.7949 91.3976 17.0385V12.0192C91.3976 11.3526 91.2951 10.891 91.0899 10.6346C90.8976 10.3654 90.5515 10.2308 90.0515 10.2308C89.3848 10.2308 88.654 10.5577 87.8592 11.2115V19H85.013V11.8846C85.013 11.0256 84.9938 10.3654 84.9553 9.90385C84.9297 9.44231 84.872 9.07051 84.7822 8.78846C85.731 8.49359 86.5066 8.34615 87.1092 8.34615C87.3784 8.34615 87.5707 8.4359 87.6861 8.61538C87.8015 8.78205 87.8592 9.0641 87.8592 9.46154V9.69231C88.513 9.14102 89.0643 8.76282 89.513 8.55769C89.9745 8.33974 90.4553 8.23077 90.9553 8.23077C92.0579 8.23077 92.8784 8.53205 93.4169 9.13461C93.9681 9.72436 94.2438 10.6282 94.2438 11.8462V16.3462ZM102.751 17.1346C102.892 17.1731 103.001 17.2564 103.077 17.3846C103.154 17.5128 103.193 17.6667 103.193 17.8462C103.193 18.1154 103.11 18.3333 102.943 18.5C102.738 18.7051 102.398 18.8718 101.924 19C101.462 19.1282 100.949 19.1923 100.385 19.1923C99.5005 19.1923 98.789 18.9487 98.2505 18.4615C97.7121 17.9615 97.4428 17.3013 97.4428 16.4808V10.2308H95.8275V8.42308H97.4428V5.53846H100.289V8.42308H102.289V10.2308H100.289V16.2308C100.289 16.6795 100.36 17 100.501 17.1923C100.654 17.3718 100.917 17.4615 101.289 17.4615C101.699 17.4615 102.186 17.3526 102.751 17.1346ZM113.121 15.0192C113.121 16.0705 113.16 16.8269 113.237 17.2885C113.326 17.75 113.499 18.1474 113.756 18.4808C113.487 18.6731 113.14 18.8333 112.717 18.9615C112.294 19.0769 111.91 19.1346 111.563 19.1346C111.243 19.1346 110.987 19.0192 110.794 18.7885C110.602 18.5577 110.461 18.1923 110.371 17.6923C110.025 18.2308 109.615 18.6154 109.14 18.8462C108.666 19.0769 108.051 19.1923 107.294 19.1923C106.358 19.1923 105.602 18.9423 105.025 18.4423C104.448 17.9295 104.16 17.2628 104.16 16.4423C104.16 15.2885 104.64 14.4295 105.602 13.8654C106.576 13.2885 108.134 12.9423 110.275 12.8269V11.8269C110.275 11.3013 110.134 10.9103 109.852 10.6538C109.583 10.3974 109.166 10.2692 108.602 10.2692C108.192 10.2692 107.781 10.3526 107.371 10.5192C106.974 10.6731 106.48 10.9487 105.89 11.3462C105.826 11.3974 105.737 11.4231 105.621 11.4231C105.39 11.4231 105.14 11.2692 104.871 10.9615C104.615 10.6538 104.384 10.25 104.179 9.75C104.679 9.3141 105.378 8.95513 106.275 8.67308C107.185 8.3782 108.083 8.23077 108.967 8.23077C110.301 8.23077 111.326 8.54487 112.044 9.17308C112.762 9.78846 113.121 10.6731 113.121 11.8269V15.0192ZM108.294 17.3462C108.679 17.3462 109.031 17.2115 109.352 16.9423C109.685 16.6731 109.993 16.2564 110.275 15.6923V14.2692C109.211 14.3077 108.403 14.4872 107.852 14.8077C107.313 15.1154 107.044 15.5577 107.044 16.1346C107.044 16.5064 107.16 16.8013 107.39 17.0192C107.621 17.2372 107.922 17.3462 108.294 17.3462ZM120.205 19.1923C116.667 19.1923 114.897 17.3462 114.897 13.6538C114.897 11.9615 115.352 10.6346 116.263 9.67308C117.173 8.71154 118.429 8.23077 120.032 8.23077C121.288 8.23077 122.32 8.54487 123.128 9.17308C123.949 9.78846 124.429 10.6282 124.57 11.6923C123.827 12.141 123.211 12.3654 122.724 12.3654C122.519 12.3654 122.346 12.3013 122.205 12.1731C122.077 12.0449 121.968 11.8397 121.878 11.5577C121.686 11.0192 121.449 10.641 121.167 10.4231C120.885 10.1923 120.506 10.0769 120.032 10.0769C119.314 10.0769 118.756 10.3846 118.359 11C117.974 11.6154 117.782 12.5 117.782 13.6538C117.782 14.8974 117.974 15.8141 118.359 16.4038C118.756 16.9808 119.372 17.2692 120.205 17.2692C120.782 17.2692 121.237 17.0769 121.57 16.6923C121.904 16.2949 122.154 15.6667 122.32 14.8077C123.026 14.8077 123.532 14.9359 123.84 15.1923C124.147 15.4487 124.301 15.8654 124.301 16.4423C124.301 16.9295 124.109 17.3846 123.724 17.8077C123.352 18.2308 122.852 18.5705 122.224 18.8269C121.596 19.0705 120.923 19.1923 120.205 19.1923ZM132.573 17.1346C132.714 17.1731 132.823 17.2564 132.9 17.3846C132.977 17.5128 133.016 17.6667 133.016 17.8462C133.016 18.1154 132.932 18.3333 132.766 18.5C132.56 18.7051 132.221 18.8718 131.746 19C131.285 19.1282 130.772 19.1923 130.208 19.1923C129.323 19.1923 128.612 18.9487 128.073 18.4615C127.535 17.9615 127.266 17.3013 127.266 16.4808V10.2308H125.65V8.42308H127.266V5.53846H130.112V8.42308H132.112V10.2308H130.112V16.2308C130.112 16.6795 130.182 17 130.323 17.1923C130.477 17.3718 130.74 17.4615 131.112 17.4615C131.522 17.4615 132.009 17.3526 132.573 17.1346Z" fill="white"/>
<rect y="16.0256" width="32.0513" height="2.5641" rx="0.641026" fill="#FBBF24"/>
<path fill-rule="evenodd" clip-rule="evenodd" d="M9.61536 4.92016C5.78328 7.13689 3.20508 11.2801 3.20508 16.0255H28.8461C28.8461 11.2801 26.2679 7.1369 22.4358 4.92017V11.2179C22.4358 12.103 21.7183 12.8205 20.8333 12.8205C19.9482 12.8205 19.2307 12.103 19.2307 11.2179V3.60892C18.7087 3.47456 18.1738 3.37225 17.6282 3.30422V11.2179C17.6282 12.103 16.9107 12.8205 16.0257 12.8205C15.1406 12.8205 14.4231 12.103 14.4231 11.2179V3.3042C13.8775 3.37223 13.3426 3.47454 12.8205 3.60892V11.2179C12.8205 12.103 12.103 12.8205 11.2179 12.8205C10.3328 12.8205 9.61536 12.103 9.61536 11.2179V4.92016Z" fill="#FBBF24"/>
</svg>
