<svg width="33" height="16" viewBox="0 0 33 16" fill="none" xmlns="http://www.w3.org/2000/svg">
<rect y="13.0256" width="32.0513" height="2.5641" rx="0.641026" fill="#FBBF24"/>
<path fill-rule="evenodd" clip-rule="evenodd" d="M9.61536 1.92016C5.78328 4.13689 3.20508 8.28012 3.20508 13.0255H28.8461C28.8461 8.28013 26.2679 4.1369 22.4358 1.92017V8.21789C22.4358 9.10296 21.7183 9.82045 20.8333 9.82045C19.9482 9.82045 19.2307 9.10296 19.2307 8.21789V0.608919C18.7087 0.474557 18.1738 0.372248 17.6282 0.304216V8.21789C17.6282 9.10296 16.9107 9.82045 16.0257 9.82045C15.1406 9.82045 14.4231 9.10296 14.4231 8.21789V0.304199C13.8775 0.37223 13.3426 0.474544 12.8205 0.608916V8.21789C12.8205 9.10296 12.103 9.82045 11.2179 9.82045C10.3328 9.82045 9.61536 9.10296 9.61536 8.21789V1.92016Z" fill="#FBBF24"/>
</svg>
